<mxfile host="app.diagrams.net" modified="2023-05-16T18:46:56.409Z" agent="Mozilla/5.0 (Windows NT 10.0; Win64; x64) AppleWebKit/537.36 (KHTML, like Gecko) Chrome/110.0.0.0 YaBrowser/23.3.3.719 Yowser/2.5 Safari/537.36" version="21.3.2" etag="LWCwoRyL19yOFiq3Zvbj" type="github">
  <diagram name="Страница 1" id="WO0w6klMDBjoLuByVkHz">
    <mxGraphModel>
      <root>
        <mxCell id="0" />
        <mxCell id="1" parent="0" />
      </root>
    </mxGraphModel>
  </diagram>
</mxfile>
